<?xml version="1.0" standalone="no"?><!DOCTYPE svg PUBLIC "-//W3C//DTD SVG 1.1//EN" "http://www.w3.org/Graphics/SVG/1.1/DTD/svg11.dtd"><svg t="1606255984550" class="icon" viewBox="0 0 1024 1024" version="1.1" xmlns="http://www.w3.org/2000/svg" p-id="605" xmlns:xlink="http://www.w3.org/1999/xlink" width="200" height="200"><defs><style type="text/css"></style></defs><path d="M729.4 152.99999999l-351.5 351.50000001c-1.9 1.9-3.1 4.5-3.1 7.5s1.2 5.6 3.2 7.6L729.4 871.00000001c13.9 13.9 13.9 36.7 0 50.59999998-13.9 13.9-36.7 13.9-50.6 1e-8l-384.3-384.3c-13.9-13.9-13.9-36.7 0-50.6 0.1-0.1 0.1-0.1 0.2-0.1L678.9 102.40000001c13.9-13.9 36.7-13.9 50.6-1e-8 13.8 13.9 13.8 36.7-0.1 50.59999999z" p-id="606"></path><path d="M382.8 501.8c0.20000001 0 0.3-0.1 0.50000001-0.1-0.20000001 0-0.29999999 0-0.50000001 0.1z m-1.7 0.6c0.1 0 0.1-0.1 0.2-0.1-0.1 0-0.1 0-0.2 0.1z m4.3-1z" p-id="607"></path></svg>