<?xml version="1.0" standalone="no"?><!DOCTYPE svg PUBLIC "-//W3C//DTD SVG 1.1//EN" "http://www.w3.org/Graphics/SVG/1.1/DTD/svg11.dtd"><svg t="1606226517203" class="icon" viewBox="0 0 1024 1024" version="1.1" xmlns="http://www.w3.org/2000/svg" p-id="2756" xmlns:xlink="http://www.w3.org/1999/xlink" width="200" height="200"><defs><style type="text/css"></style></defs><path d="M294.6 871l351.5-351.5c1.9-1.9 3.1-4.5 3.1-7.5s-1.2-5.6-3.2-7.6L294.6 153c-13.9-13.9-13.9-36.7 0-50.6 13.9-13.9 36.7-13.9 50.6 0l384.3 384.3c13.9 13.9 13.9 36.7 0 50.6-0.1 0.1-0.1 0.1-0.2 0.1L345.1 921.6c-13.9 13.9-36.7 13.9-50.6 0-13.8-13.9-13.8-36.7 0.1-50.6z" p-id="2757"></path><path d="M641.2 522.2c-0.2 0-0.3 0.1-0.5 0.1 0.2 0 0.3 0 0.5-0.1zM642.9 521.6c-0.1 0-0.1 0.1-0.2 0.1 0.1 0 0.1 0 0.2-0.1zM638.6 522.6h0z" p-id="2758"></path></svg>