<?xml version="1.0" standalone="no"?><!DOCTYPE svg PUBLIC "-//W3C//DTD SVG 1.1//EN" "http://www.w3.org/Graphics/SVG/1.1/DTD/svg11.dtd"><svg t="1605794600972" class="icon" viewBox="0 0 1024 1024" version="1.1" xmlns="http://www.w3.org/2000/svg" p-id="4583" xmlns:xlink="http://www.w3.org/1999/xlink" width="200" height="200"><defs><style type="text/css"></style></defs><path d="M296 912H120c-4.4 0-8-3.6-8-8V520c0-4.4 3.6-8 8-8h176c4.4 0 8 3.6 8 8v384c0 4.4-3.6 8-8 8zM600 912H424c-4.4 0-8-3.6-8-8V121c0-4.4 3.6-8 8-8h176c4.4 0 8 3.6 8 8v783c0 4.4-3.6 8-8 8zM904 912H728c-4.4 0-8-3.6-8-8V280c0-4.4 3.6-8 8-8h176c4.4 0 8 3.6 8 8v624c0 4.4-3.6 8-8 8z" p-id="4584"></path></svg>